:SAMPLES-PER-SECOND 30
:FULLY-SPECIFIED
:DEGREES
70
root  -5.21882 38.2919 9.50179 179.31 35.3223 178.181
RightUpLeg  -8.03341 -2.4484 -4.54473
RightLeg  29.8777 -7.40892 -4.82455
RightFoot  -18.718 0.589732 11.091
RightToes  -1.74624e-010 0 -3.6325e-017
Spine  8.28662 -0.0444702 -1.77705
Spine1  26.0713 0.0401268 0.468349
HEad  -18.0568 31.5892 -16.0775
LeftShoulder1  1.49083 -2.66839 -17.5119
LeftArm  15.6523 8.91627 -62.2922
LeftForeArm  77.8538 -79.4271 -88.2125
LeftHand  -2.4422 -3.338 31.9852
RightShoulder  0.694297 0.0446246 12.6046
RightArm  6.99573 -9.29656 58.2315
RightForeArm  153.864 64.7626 157.433
RightHand  -1.31613 5.49695 -14.2657
LeftUpLeg  -18.3421 0.773075 6.58228
LeftLeg  34.8221 -2.12748 -1.24381
LeftFoot  -9.45326 0.252645 -11.8398
LeftToes  3.7286e-011 -1.5702e-010 -9.70233e-012
71
root  -5.42086 38.4792 9.22439 179.464 36.156 177.812
RightUpLeg  -7.65891 -0.845335 -5.2043
RightLeg  28.2314 -8.27023 -5.02494
RightFoot  -17.5444 0.500039 11.4059
RightToes  -1.74624e-010 0 -3.6325e-017
Spine  7.23112 -0.269178 -1.79654
Spine1  25.9757 -0.0308227 -0.017248
HEad  -17.7287 32.1302 -16.3071
LeftShoulder1  1.41167 -2.43507 -17.0962
LeftArm  16.1921 10.15 -62.103
LeftForeArm  83.4648 -79.437 -93.3839
LeftHand  -2.43474 -3.50464 31.3287
RightShoulder  0.669168 -0.0735436 12.545
RightArm  7.25688 -11.3474 58.4229
RightForeArm  154.083 64.154 158.03
RightHand  -1.37781 5.56444 -14.8279
LeftUpLeg  -16.5721 0.157275 5.86195
LeftLeg  31.8841 0.92927 0.988989
LeftFoot  -9.33457 0.242235 -10.6009
LeftToes  3.7286e-011 -1.5702e-010 -9.70233e-012
72
root  -5.65317 38.6347 8.93567 179.522 37.125 177.315
RightUpLeg  -7.44077 0.809005 -6.06093
RightLeg  26.8148 -8.92471 -5.10494
RightFoot  -16.5688 0.441005 12.0879
RightToes  -1.74624e-010 0 -3.6325e-017
Spine  6.32166 -0.328751 -2.1694
Spine1  25.91 -0.122858 -0.153177
HEad  -17.7048 32.7444 -16.9741
LeftShoulder1  1.3554 -2.28331 -16.7159
LeftArm  16.7285 10.3908 -61.6739
LeftForeArm  86.2451 -79.3949 -96.1784
LeftHand  -2.4164 -3.62161 30.7238
RightShoulder  0.68278 0.0301803 12.3335
RightArm  7.20551 -12.724 58.4443
RightForeArm  154.179 63.9167 158.256
RightHand  -1.35296 5.58578 -14.5389
LeftUpLeg  -15.0574 1.22061 4.73864
LeftLeg  29.1356 1.25921 1.11074
LeftFoot  -10.0371 0.174286 -9.99166
LeftToes  3.7286e-011 -1.5702e-010 -9.70233e-012
73
root  -5.9169 38.7008 8.6806 179.216 37.7554 176.655
RightUpLeg  -7.38095 1.91424 -7.13655
RightLeg  26.3222 -9.31274 -5.20823
RightFoot  -16.1579 0.425121 12.6723
RightToes  -1.74624e-010 0 -3.6325e-017
Spine  6.0021 -0.340964 -2.95168
Spine1  25.7817 -0.396422 0.200492
HEad  -17.6698 33.2867 -17.4875
LeftShoulder1  1.31542 -2.17973 -16.4144
LeftArm  17.474 9.31395 -60.9062
LeftForeArm  85.7612 -79.3762 -96.1188
LeftHand  -2.38657 -3.59701 30.4434
RightShoulder  0.721553 0.260893 12.1549
RightArm  6.90227 -13.2201 58.421
RightForeArm  154.063 64.1613 158.02
RightHand  -1.27546 5.51662 -13.8169
LeftUpLeg  -14.0476 2.68189 3.41845
LeftLeg  27.3949 0.880178 0.83407
LeftFoot  -10.8167 0.105138 -8.79247
LeftToes  3.7286e-011 -1.5702e-010 -9.70233e-012
74
root  -6.21412 38.66 8.47515 178.644 38.0192 176.148
RightUpLeg  -7.47661 2.37001 -8.1678
RightLeg  26.8919 -9.2795 -5.30763
RightFoot  -16.1713 0.44237 13.0482
RightToes  -1.74624e-010 0 -3.6325e-017
Spine  6.33159 -0.381769 -3.51207
Spine1  25.6977 -0.67489 0.538981
HEad  -17.6779 33.5042 -17.6597
LeftShoulder1  1.30905 -2.21725 -16.1286
LeftArm  18.2393 7.04896 -59.7107
LeftForeArm  83.9862 -79.3694 -94.9491
LeftHand  -2.34572 -3.47055 30.3532
RightShoulder  0.762475 0.503552 11.9942
RightArm  6.35263 -12.9867 58.6695
RightForeArm  153.984 64.6319 157.572
RightHand  -1.2476 5.47715 -13.571
LeftUpLeg  -13.4817 3.48882 2.35194
LeftLeg  26.9938 1.07321 0.935291
LeftFoot  -11.5371 0.0564093 -7.38781
LeftToes  3.7286e-011 -1.5702e-010 -9.70233e-012
75
root  -6.52919 38.5464 8.30268 178.004 38.4054 176.017
RightUpLeg  -7.6397 2.51976 -8.96521
RightLeg  27.9773 -8.55958 -5.13135
RightFoot  -16.2906 0.485484 13.7397
RightToes  -1.74624e-010 0 -3.6325e-017
Spine  7.01426 -0.342247 -3.50136
Spine1  25.8294 -0.657634 0.452423
HEad  -17.8739 33.4066 -17.6839
LeftShoulder1  1.35227 -2.47923 -15.8261
LeftArm  18.4795 4.11003 -58.3118
LeftForeArm  82.1377 -79.3633 -93.6306
LeftHand  -2.29562 -3.33131 30.1872
RightShoulder  0.794705 0.701322 11.8466
RightArm  5.59306 -12.2462 59.1243
RightForeArm  154.123 65.0366 157.197
RightHand  -1.26631 5.54121 -13.6912
LeftUpLeg  -13.1235 4.00347 1.73768
LeftLeg  27.593 1.1947 1.01974
LeftFoot  -12.5576 0.00503993 -6.58134
LeftToes  3.7286e-011 -1.5702e-010 -9.70233e-012
76
root  -6.8308 38.4286 8.13595 177.52 39.1568 176.201
RightUpLeg  -7.77044 2.58728 -9.51156
RightLeg  28.8335 -7.41843 -4.63678
RightFoot  -16.359 0.534727 14.6783
RightToes  -1.74624e-010 0 -3.6325e-017
Spine  7.59978 -0.140391 -3.26441
Spine1  26.1862 -0.371582 0.198875
HEad  -18.101 33.2898 -17.5893
LeftShoulder1  1.41267 -2.85206 -15.4184
LeftArm  17.8268 1.21068 -57.2902
LeftForeArm  79.5889 -79.3644 -91.4311
LeftHand  -2.25054 -3.20224 30.0465
RightShoulder  0.814061 0.808219 11.8231
RightArm  4.84505 -11.186 59.4683
RightForeArm  154.291 65.3311 156.924
RightHand  -1.25569 5.61136 -13.497
LeftUpLeg  -12.9021 4.65455 1.42787
LeftLeg  28.5604 1.08234 0.985574
LeftFoot  -13.685 -0.0438146 -6.1435
LeftToes  3.7286e-011 -1.5702e-010 -9.70233e-012
77
root  -7.09418 38.3799 7.96099 177.466 40.0096 176.573
RightUpLeg  -7.91119 2.41415 -9.86783
RightLeg  29.0448 -6.35582 -4.04387
RightFoot  -16.1011 0.520833 15.0851
RightToes  -1.74624e-010 0 -3.6325e-017
Spine  7.74027 0.124356 -3.21128
Spine1  26.6102 -0.110564 0.200784
HEad  -18.0389 33.4011 -17.1995
LeftShoulder1  1.43248 -3.09414 -14.8539
LeftArm  16.4239 -1.05549 -57.0143
LeftForeArm  76.1901 -79.3505 -88.3051
LeftHand  -2.24078 -3.08662 30.3087
RightShoulder  0.817122 0.804078 11.923
RightArm  4.39863 -10.1122 59.7085
RightForeArm  154.316 65.595 156.661
RightHand  -1.21721 5.59878 -13.1113
LeftUpLeg  -12.8395 4.94948 1.23435
LeftLeg  29.1902 1.61111 1.32306
LeftFoot  -14.298 -0.0613503 -5.6827
LeftToes  3.7286e-011 -1.5702e-010 -9.70233e-012
78
root  -7.31518 38.4382 7.7894 177.903 40.76 176.986
RightUpLeg  -8.28912 1.8272 -10.1933
RightLeg  28.7354 -5.19351 -3.31248
RightFoot  -15.034 0.384865 15.0292
RightToes  -1.74624e-010 0 -3.6325e-017
Spine  7.52549 0.329296 -3.40558
Spine1  26.7817 0.00825139 0.365203
HEad  -17.6258 33.7273 -16.5587
LeftShoulder1  1.39137 -3.05596 -14.3049
LeftArm  14.7226 -2.42948 -57.1901
LeftForeArm  73.8261 -79.3178 -86.2912
LeftHand  -2.28364 -3.03279 31.043
RightShoulder  0.80826 0.756985 11.9252
RightArm  4.38736 -9.52587 60.1695
RightForeArm  154.468 65.7362 156.534
RightHand  -1.21586 5.56613 -13.1339
LeftUpLeg  -12.8085 4.63953 1.04906
LeftLeg  28.911 2.82942 2.03719
LeftFoot  -14.1995 -0.0494422 -5.38717
LeftToes  3.7286e-011 -1.5702e-010 -9.70233e-012
79
root  -7.5024 38.5742 7.64921 178.566 41.4974 177.249
RightUpLeg  -9.10313 0.819397 -10.6494
RightLeg  28.4026 -3.54188 -2.30545
RightFoot  -13.0901 0.149336 15.7044
RightToes  -1.74624e-010 0 -3.6325e-017
Spine  7.45244 0.477094 -3.76646
Spine1  26.3307 0.106705 0.34732
HEad  -17.2164 34.1227 -16.0378
LeftShoulder1  1.31174 -2.76758 -13.9821
LeftArm  13.1254 -2.93233 -57.2571
LeftForeArm  74.6425 -79.3108 -87.5162
LeftHand  -2.35432 -3.07333 31.8077
RightShoulder  0.800854 0.76944 11.6709
RightArm  4.74093 -9.78442 60.9385
RightForeArm  155.084 65.527 156.814
RightHand  -1.24627 5.60637 -13.4053
LeftUpLeg  -12.693 4.44928 0.813845
LeftLeg  27.7328 3.75021 2.48531
LeftFoot  -13.6959 -0.0270434 -5.30519
LeftToes  3.7286e-011 -1.5702e-010 -9.70233e-012
80
root  -7.65805 38.7201 7.56268 179.199 42.163 177.313
RightUpLeg  -10.2218 -0.672489 -11.1748
RightLeg  28.3692 -2.19168 -1.51375
RightFoot  -10.9084 -0.142283 17.5275
RightToes  -1.74624e-010 0 -3.6325e-017
Spine  7.7826 0.587286 -4.27961
Spine1  25.2983 0.205226 0.145547
HEad  -17.2618 34.4534 -15.9113
LeftShoulder1  1.22331 -2.39308 -13.7909
LeftArm  11.7851 -2.79264 -57.0585
LeftForeArm  78.5658 -79.3064 -91.6775
LeftHand  -2.408 -3.16696 32.1571
RightShoulder  0.801029 0.842269 11.3227
RightArm  5.30141 -10.643 61.6948
RightForeArm  155.888 64.9658 157.457
RightHand  -1.24244 5.66964 -13.2922
LeftUpLeg  -12.6313 4.93496 0.543329
LeftLeg  26.2831 3.86398 2.42141
LeftFoot  -13.0477 0.0018565 -5.11143
LeftToes  3.7286e-011 -1.5702e-010 -9.70233e-012
81
root  -7.77683 38.8355 7.52713 179.847 42.4548 177.403
RightUpLeg  -11.197 -2.53176 -11.488
RightLeg  28.3605 -2.64007 -1.77344
RightFoot  -9.10725 -0.439626 19.2464
RightToes  -1.74624e-010 0 -3.6325e-017
Spine  8.12985 0.609294 -4.80298
Spine1  24.3476 0.182621 0.0375368
HEad  -17.795 34.5609 -16.0031
LeftShoulder1  1.15637 -2.14916 -13.4728
LeftArm  10.6613 -2.43491 -56.8449
LeftForeArm  82.8769 -79.2634 -95.8768
LeftHand  -2.4252 -3.24058 32.1127
RightShoulder  0.799711 0.868436 11.1653
RightArm  5.90878 -11.3943 62.1359
RightForeArm  156.225 64.4252 158.006
RightHand  -1.19889 5.64381 -12.8698
LeftUpLeg  -12.803 5.50239 0.38418
LeftLeg  25.1411 3.70647 2.23994
LeftFoot  -12.3453 0.0321375 -4.76924
LeftToes  3.7286e-011 -1.5702e-010 -9.70233e-012
82
root  -7.85604 38.9331 7.51802 -179.384 42.3182 177.744
RightUpLeg  -11.5827 -4.01047 -11.4249
RightLeg  27.7849 -5.03556 -3.09608
RightFoot  -7.64849 -0.691441 19.6785
RightToes  -1.74624e-010 0 -3.6325e-017
Spine  8.03628 0.549481 -5.02777
Spine1  24.0738 0.0699001 0.125084
HEad  -18.3364 34.3079 -15.896
LeftShoulder1  1.13757 -2.1555 -13.0823
LeftArm  9.78288 -2.28872 -56.7456
LeftForeArm  84.2867 -79.2503 -97.0346
LeftHand  -2.4157 -3.24747 31.9699
RightShoulder  0.78897 0.79711 11.2266
RightArm  6.41415 -11.5982 62.3049
RightForeArm  155.976 64.3093 158.086
RightHand  -1.17602 5.54943 -12.7363
LeftUpLeg  -13.0574 5.27033 0.470104
LeftLeg  24.24 3.93581 2.27754
LeftFoot  -11.7167 0.0552746 -4.59405
LeftToes  3.7286e-011 -1.5702e-010 -9.70233e-012
